<svg xmlns="http://www.w3.org/2000/svg" viewBox="0 0 512 512" width="51.2" height="51.2">
<style type="text/css">
    .leaf {fill: #AAD6A1;}
    .heart {fill: #FFCFF3;}
</style>
<path  class="leaf" d="M486.2 39.98C483.8 34.67 478.8 32 473.8 32c-4.744 0-9.547 2.379-12.3 7.156c-24.99 43.27-70.11 65.15-115.9 65.15c-11.18 0-22.41-1.304-33.39-3.917c-12.9-3.07-26.34-4.527-40.18-4.527C174.8 95.86 96 174.8 96 272c0 11.16 1.116 22.04 3.101 32.61c-.0215 .0195 .0215-.0156 0 0C13.19 372.1 .5469 467 .0625 471c-.5469 4.375 2.578 8.375 6.953 8.906C7.359 479.1 7.688 480 8.016 480c3.969 0 7.422-2.969 7.922-7.031c.1074-.8828 11.83-87.79 87.37-150.1c21.55 72.84 88.88 126 168.7 126c22.87 0 44.65-4.518 64.69-12.46C441.9 400.7 512 293.2 512 165.4C512 121.9 502.7 76.76 486.2 39.98z"/>
<path class="heart" d="M348.6 192c-13.6 0-27.34 5.512-37.53 15.82l-7.188 7.188l-7.188-7.188C286.5 197.5 272.8 192 259.3 192c -10.84 0-21.61 3.52-30.5 10.92C205.9 222.1 204.6 256.5 225.1 277.2l70.63 71.36C298.1 350.9 301 352 304 352c2.967 0 5.936-1.145 8.229-3.438l70.63-71.36c20.52-20.73 19.27-55.11-3.75-74.28C370.3 195.5 359.5 192 348.6 192z"/></svg>